<svg
  xmlns="http://www.w3.org/2000/svg"
  version="1.1"
  xmlns:xlink="http://www.w3.org/1999/xlink"
  xmlns:svgjs="http://svgjs.dev/svgjs"
  viewBox="0 0 800 800"
>
  <circle
    xmlns="http://www.w3.org/2000/svg"
    cx="400"
    r="400"
    cy="400"
    fill="white"
  />
  <defs>
    <linearGradient
      gradientTransform="rotate(270)"
      x1="50%"
      y1="0%"
      x2="50%"
      y2="100%"
      id="sssquiggly-grad"
    >
      <stop stop-color="hsl(206, 75%, 49%)" stop-opacity="1" offset="0%"></stop>
      <stop
        stop-color="hsl(331, 90%, 56%)"
        stop-opacity="1"
        offset="100%"
      ></stop>
    </linearGradient>
  </defs>
  <g
    stroke-width="20"
    stroke="url(#sssquiggly-grad)"
    fill="none"
    stroke-linecap="round"
    transform="matrix(1,0,0,1,-5,223.56998443603516)"
  >
    <path
      d="M10,10C49.583333333333336,18.958333333333336,118.75,64.25,200,53C281.25,41.75,316.66666666666663,-48.166666666666664,400,-44C483.33333333333337,-39.833333333333336,516.6666666666666,72.79166666666667,600,73C683.3333333333334,73.20833333333333,758.3333333333334,-18.833333333333336,800,-43"
    ></path>
    <path
      d="M10,10C49.583333333333336,18.958333333333336,118.75,64.25,200,53C281.25,41.75,316.66666666666663,-48.166666666666664,400,-44C483.33333333333337,-39.833333333333336,516.6666666666666,72.79166666666667,600,73C683.3333333333334,73.20833333333333,758.3333333333334,-18.833333333333336,800,-43"
      transform="matrix(1,0,0,1,0,324)"
    ></path>
    <path
      d="M10,10C49.583333333333336,18.958333333333336,118.75,64.25,200,53C281.25,41.75,316.66666666666663,-48.166666666666664,400,-44C483.33333333333337,-39.833333333333336,516.6666666666666,72.79166666666667,600,73C683.3333333333334,73.20833333333333,758.3333333333334,-18.833333333333336,800,-43"
      transform="matrix(1,0,0,1,0,270)"
    ></path>
    <path
      d="M10,10C49.583333333333336,18.958333333333336,118.75,64.25,200,53C281.25,41.75,316.66666666666663,-48.166666666666664,400,-44C483.33333333333337,-39.833333333333336,516.6666666666666,72.79166666666667,600,73C683.3333333333334,73.20833333333333,758.3333333333334,-18.833333333333336,800,-43"
      transform="matrix(1,0,0,1,0,216)"
    ></path>
    <path
      d="M10,10C49.583333333333336,18.958333333333336,118.75,64.25,200,53C281.25,41.75,316.66666666666663,-48.166666666666664,400,-44C483.33333333333337,-39.833333333333336,516.6666666666666,72.79166666666667,600,73C683.3333333333334,73.20833333333333,758.3333333333334,-18.833333333333336,800,-43"
      transform="matrix(1,0,0,1,0,162)"
    ></path>
    <path
      d="M10,10C49.583333333333336,18.958333333333336,118.75,64.25,200,53C281.25,41.75,316.66666666666663,-48.166666666666664,400,-44C483.33333333333337,-39.833333333333336,516.6666666666666,72.79166666666667,600,73C683.3333333333334,73.20833333333333,758.3333333333334,-18.833333333333336,800,-43"
      transform="matrix(1,0,0,1,0,108)"
    ></path>
    <path
      d="M10,10C49.583333333333336,18.958333333333336,118.75,64.25,200,53C281.25,41.75,316.66666666666663,-48.166666666666664,400,-44C483.33333333333337,-39.833333333333336,516.6666666666666,72.79166666666667,600,73C683.3333333333334,73.20833333333333,758.3333333333334,-18.833333333333336,800,-43"
      transform="matrix(1,0,0,1,0,54)"
    ></path>
  </g>
</svg>
