<svg viewBox="0 0 800 800" xmlns="http://www.w3.org/2000/svg">
  <circle xmlns="http://www.w3.org/2000/svg" cy="400" fill="white" stroke="black" cx="400" r="375"/>
  <g stroke-width="20" fill="none" stroke-linecap="round" stroke-linejoin="round" stroke="#196858">
    <path d="M0,550 L8,550.1773608134138 L16,550.7059462055754 L24,551.5753229452131 L32,552.768294432543 L40,554.2611856576062 L48,556.0242357540052 L56.00000000000001,558.0220918815199 L64,560.214396551946 L72,562.5564590181083 L80,565 L88,567.493957845702 L96,569.9853432367629 L104,572.4201287637401 L112.00000000000001,574.7441591300325 L120,576.9040674000227 L128,578.8481825963221 L136,580.5274140724214 L144,581.8960984394129 L152,582.9127954031827 L160,583.5410196624969 L168,583.7498970162616 L176,583.5147340142192 L184,582.8174918407881 L192,581.6471566253138 L200,580 L208,577.8797254535549 L216,575.2974978269298 L224.00000000000003,572.2718551390758 L231.99999999999997,568.8285037863703 L240,565 L248,560.8253222421021 L256,556.3493409455085 L264,551.6221936263184 L272,546.6985748975823 L280,541.6369522624742 L288,536.4987197451111 L296,531.3473024080188 L304,526.2472255914782 L312,521.2631632791546 L320,516.4589803375031 L328,511.89678348798736 L336,507.6359957493142 L344,503.73246873355873 L352,500.23764660071015 L360,497.19779467989696 L368,494.6533047648252 L376,492.6380879014918 L384,491.17906412670675 L392,490.2957571077175 L400,490 L408,490.2957571077175 L416,491.17906412670675 L424,492.6380879014918 L432,494.6533047648252 L440.00000000000006,497.19779467989696 L448.00000000000006,500.23764660071015 L455.99999999999994,503.7324687335587 L463.99999999999994,507.63599574931413 L472,511.89678348798736 L480,516.4589803375031 L488,521.2631632791546 L496,526.2472255914782 L504,531.3473024080188 L512,536.4987197451111 L520,541.6369522624742 L528,546.6985748975823 L536,551.6221936263184 L544,556.3493409455085 L552,560.825322242102 L560,565 L568,568.8285037863702 L576,572.2718551390758 L584,575.2974978269298 L592,577.8797254535549 L600,580 L608,581.6471566253138 L616,582.8174918407881 L624,583.5147340142192 L632,583.7498970162616 L640,583.5410196624969 L648,582.9127954031827 L656,581.8960984394129 L664,580.5274140724214 L672,578.8481825963221 L680,576.9040674000227 L688,574.7441591300325 L696,572.4201287637401 L704,569.985343236763 L712,567.493957845702 L720,565 L728,562.5564590181083 L736,560.214396551946 L744,558.0220918815199 L752,556.0242357540052 L760,554.2611856576062 L768,552.768294432543 L776,551.5753229452131 L784,550.7059462055754 L792,550.1773608134138 L800,550"/>
    <path d="M0,500 L8,500.7239183300987 L16,501.76804768249855 L24,503.10736186398816 L32,504.71090443847726 L40,506.54231574136213 L48,508.56044998470566 L56.00000000000001,510.7200725486834 L64,512.9726262715897 L72,515.2670544447287 L80,517.55066730725 L88,519.7700381338656 L96,521.8719145265352 L104,523.8041302672991 L112.00000000000001,525.5165030675228 L120,526.9617037592944 L128,528.0960829143218 L136,528.8804415375013 L144,529.2807333559996 L152,529.2686872964334 L160,528.8223399956967 L168,527.9264696054153 L176,526.5729237036333 L184,524.7608357956467 L192,522.4967266426092 L200,519.794488473928 L208,516.6752519888913 L216,513.1671379052292 L224.00000000000003,509.30489663819986 L231.99999999999997,505.12944146448444 L240,500.6872822127206 L248,496.02986810026255 L256,491.21284977880566 L264,486.2952719370619 L272,481.3387089163904 L280,476.40635670767097 L288,471.5620954002973 L296,466.8695366358388 L304,462.39107087200637 L312,458.18692928300464 L320,454.31427490977387 L328,450.8263372312889 L336,447.7716036629068 L344,445.1930806101339 L352,443.127635629896 L360,441.60543099331807 L368,440.6494575239249 L376,440.2751760253595 L384,440.4902719377056 L392,441.29452709762046 L400,442.67981065246363 L408,444.6301893211484 L416,447.1221553337456 L424,450.1249685471996 L432,453.6011074547214 L440.00000000000006,457.50682210948867 L448.00000000000006,461.79278039589343 L455.99999999999994,466.40479762868364 L463.99999999999994,471.28463816478836 L472,476.37087659475316 L480,481.5998051581008 L488,486.9063733140588 L496,492.2251449071342 L504,497.4912581036711 L512,502.6413732448898 L520,507.6145939644136 L528,512.3533473506999 L536,516.8042095902362 L544,520.9186643954814 L552,524.6537825885836 L560,527.9728124610476 L568,530.8456719410339 L576,533.2493351515576 L584,535.1681076100543 L592,536.5937860762785 L600,537.5257008736083 L608,537.9706403598616 L616,537.9426590785266 L624,537.4627729506124 L632,536.558546642317 L640,535.2635799364286 L648,533.6169015191384 L656,531.6622800438273 L664,529.4474636265601 L672,527.0233600441278 L680,524.4431708269782 L688,521.7614931517783 L696,519.0334039304918 L704,516.3135407570235 L712,513.6551944045829 L720,511.10942736651816 L728,508.72423250368956 L736,506.54374520935585 L744,504.6075216383851 L752,502.94989448508693 L760,501.59941654993764 L768,500.57840092962596 L776,499.90256511944966 L784,499.5807846565934 L792,499.61496018349175 L800,500"/>
    <path d="M0,450 L8,451.20581037836644 L16,452.6722147256342 L24,454.36182940195744 L32,456.2327033811792 L40,458.239040244602 L48,460.33198471344286 L56.00000000000001,462.46046106214203 L64,464.57204992213224 L72,466.6138893669249 L80,468.5335857742396 L88,470.2801197956711 L96,471.8047328317079 L104,473.0617797087601 L112.00000000000001,474.0095337805474 L120,474.6109314204753 L128,474.83424382277803 L136,474.65366517324617 L144,474.0498075672744 L152,473.01009452299724 L160,471.52904653725 L168,469.6084538367591 L176,467.2574332594438 L184,464.49236803286954 L192,461.33673106982377 L200,457.8207942454393 L208,453.9812279271496 L216,449.86059676949895 L224.00000000000003,445.5067594329532 L231.99999999999997,440.9721814133414 L240,436.31317155227794 L248,431.58905401697643 L256,426.86128857102136 L264,422.1925527895446 L272,417.6458004896845 L280,413.2833110403747 L288,409.1657443781511 L296,405.3512164851368 L304,401.89440978269937 L312,398.8457323641754 L320,396.2505392407883 L328,394.1484278181986 L336,392.57261867200714 L344,391.54943136703173 L352,391.0978635880752 L360,391.22928024241014 L368,391.94721748158736 L376,393.2473047993524 L384,395.11730652158946 L392,397.5372821422471 L400,400.47986310541927 L408,403.91064181731537 L416,407.788666921316 L424,412.0670372122132 L432,416.69358502812946 L440.00000000000006,421.61163856468113 L448.00000000000006,426.7608513276135 L455.99999999999994,432.07808589668605 L463.99999999999994,437.4983383314408 L472,442.9556889218442 L480,448.3842645835228 L488,453.7191980247086 L496,458.8975688727643 L504,463.859312241259 L512,468.54808073937556 L520,472.91204666568564 L528,476.9046320763511 L536,480.4851555586156 L544,483.61938585604355 L552,486.27999396158486 L560,488.4468968950124 L568,490.1074880873648 L576,491.25675107982363 L584,491.8972550798317 L592,492.039032774296 L600,491.6993426491414 L608,490.9023198771687 L616,489.6785215835508 L624,488.06437395287617 L632,486.10153017734996 L640,483.8361496384389 L648,481.3181099419671 L656,478.6001644701505 L664,475.7370589568823 L672,472.78462122154633 L680,469.79883860186294 L688,466.8349378014691 L696,463.94648181039105 L704,461.1844982672816 L712,458.5966531159017 L720,456.2264826730508 L728,454.11269628267223 L736,452.2885605961311 L744,450.7813752096503 L752,449.61204792734264 L760,448.7947763253274 L768,448.3368405942887 L776,448.2385108613802 L784,448.49307036570923 L792,449.0869540136331 L800,450"/>
    <path d="M0,400 L8,401.579990976741 L16,403.33768078585575 L24,405.2266677100735 L32,407.1977534933968 L40,409.1997958207232 L48,411.18059401897426 L56.00000000000001,413.0877936993028 L64,414.86979575235597 L72,416.47665503230985 L80,417.86095422169063 L88,418.97863875542066 L96,419.7897992929962 L104,420.25938905261097 L112.00000000000001,420.35786434737884 L120,420.0617378754015 L128,419.35403569316236 L136,418.2246503238732 L144,416.6705840949332 L152,414.6960785356636 L160,412.3126274705397 L168,409.5388732857667 L176,406.40038769915986 L184,402.92934019562875 L192,399.16405907420403 L200,395.14849175929544 L208,390.9315726317724 L216,386.56650810917154 L224.00000000000003,382.1099900255617 L231.99999999999997,377.621349509433 L240,373.16166451425687 L248,368.79283490593167 L256,364.5766395422923 L264,360.57379008377393 L272,356.8429963463013 L280,353.4400578463184 L288,350.4169957960334 L296,347.8212391905238 L304,345.69487779697147 L312,344.07399382299474 L320,342.9880828220265 L328,342.45957300809613 L336,342.5034506219691 L344,343.1269973394358 L352,344.32964396657246 L360,346.1029428534804 L368,348.43065960584977 L376,351.2889828118359 L384,354.6468486594514 L392,358.46637552595377 L400,362.70340190376015 L408,367.30811941425463 L416,372.2257911768513 L424,377.3975444691675 L432,382.7612254561039 L440.00000000000006,388.25230279921885 L448.00000000000006,393.8048061982152 L455.99999999999994,399.3522853755752 L463.99999999999994,404.8287747018567 L472,410.16974857781895 L480,415.3130528416327 L488,420.19979785251724 L496,424.7751995101856 L504,428.9893552928487 L512,432.7979434222568 L520,436.1628344761427 L528,439.05260614737506 L536,441.44295337339537 L544,443.316987705062 L552,444.66542152493383 L560,445.4866345338631 L568,445.78662177302647 L576,445.5788243070978 L584,444.88384553387857 L592,443.72905787738586 L600,442.14810633694447 L608,440.180316977232 L616,437.87001992812134 L624,435.2657977951974 L632,432.41967154106635 L640,429.3862368658011 L648,426.2217648768789 L656,422.9832813828297 L664,419.72763946201337 L672,416.51060004356987 L680,413.3859350903583 L688,410.4045675960286 L696,407.6137620062944 L704,405.0563778575689 L712,402.77019840736955 L720,400.78734482642926 L728,399.1337851513665 L736,397.8289456807623 L744,396.88543086056904 L752,396.3088559728301 L760,396.0977951421168 L768,396.24384533535704 L776,396.73180518190645 L784,397.5399656110413 L792,398.6405075224563 L800,400"/>
    <path d="M0,350 L8,351.8130356867733 L16,353.7050017619286 L24,355.6246233579782 L32,357.51984972276733 L40,359.3387610354822 L48,361.0304741594083 L56.00000000000001,362.5460327040423 L64,363.839267014009 L72,364.86761017527635 L80,365.5928568229266 L88,365.9818524383024 L96,366.00710192243486 L104,365.6472875099421 L112.00000000000001,364.88768752289315 L120,363.72048903481317 L128,362.1449891962567 L136,360.1676817386556 L144,357.80222699457886 L152,355.06930562135284 L160,351.9963580619838 L168,348.61721359331773 L176,344.9716145676723 L184,341.10464312302344 L192,337.0660591918436 L200,332.9095600552834 L208,328.6919729451442 L216,324.4723932711383 L224.00000000000003,320.3112819282428 L231.99999999999997,316.26953580460395 L240,312.40754605387207 L248,308.7842589099628 L256,305.4562538035841 L264,302.4768532886623 L272,299.89527880690446 L280,297.7558656176463 L288,296.0973493088137 L296,294.9522351975637 L304,294.34626064334407 L312,294.29795885191027 L320,294.81833116896166 L328,295.910633171334 L336,297.5702780887027 L344,299.7848592574189 L352,302.53429144923047 L360,305.7910690604735 L368,309.52063732107104 L376,313.6818709160921 L384,318.2276527334866 L392,323.1055438863596 L400,328.2585347313996 L408,333.6258653392856 L416,339.1439027879875 L424,344.7470617629004 L432,350.3687542726835 L440.00000000000006,355.94235383710895 L448.00000000000006,361.40215928028687 L455.99999999999994,366.68434327280727 L463.99999999999994,371.72787100945976 L472,376.4753748814032 L480,380.87397169551775 L488,384.87600989823295 L496,388.43973536213 L504,391.5298655737107 L512,394.11806349974273 L520,396.1833039848516 L528,397.7121272197255 L536,398.6987755908559 L544,399.1452120512584 L552,399.0610200083062 L560,398.46318658042816 L568,397.3757728997654 L576,395.8294769042077 L584,393.86109574175134 L592,391.5128964764085 L600,388.831905213317 L608,385.869126028797 L616,382.6787021789456 L624,379.3170329508787 L632,375.84186019994536 L640,372.3113390735369 L648,368.78310765034206 L656,365.31337021956637 L664,361.95600868786886 L672,358.761736136416 L680,355.7773058639094 L688,353.04478835465096 L696,350.6009275178714 L704,348.47658627300314 L712,346.6962901254539 L720,345.2778758113736 L728,344.2322504126838 L736,343.56326458178586 L744,343.2677016967439 L752,343.3353829211105 L760,343.7493862971146 L768,344.4863761858458 L776,345.5170376120279 L784,346.80660840173863 L792,348.3155004453883 L800,350"/>
    <path d="M0,300 L8,301.8841273185818 L16,303.7413659650344 L24,305.52014815285594 L32,307.1702201724046 L40,308.64352254011794 L48,309.89503489470553 L56.00000000000001,310.8835719725668 L64,311.5725177701144 L72,311.9304859807635 L80,311.9318959636153 L88,311.55745484084196 L96,310.79453781031316 L104,309.637460375563 L112.00000000000001,308.08763791126074 L120,306.15362977180814 L128,303.85106698527824 L136,301.2024644256343 L144,298.23692019379075 L152,294.9897067335522 L160,291.5017599334067 L168,287.81907409229234 L176,283.99201213105965 L184,280.074541787631 L192,276.12340972135087 L200,272.19726645190946 L208,268.3557558546688 L216,264.6585835145686 L224.00000000000003,261.16457859581345 L231.99999999999997,257.93076400855375 L240,255.01144954472332 L248,252.45736231473603 L256,250.3148282501356 L264,248.6250176534052 L272,247.42326678724027 L280,246.73848631719332 L288,246.59266607220286 L296,247.00048408833302 L304,247.96902627563009 L312,249.49762132191313 L320,251.57779364770136 L328,254.1933353816542 L336,257.32049646488963 L344,260.92829014463297 L352,264.97890931192467 L360,269.42824740299227 L368,274.2265159466901 L376,279.3189493269018 L384,284.64658596280765 L392,290.1471139129504 L400,295.75576789993784 L408,301.4062639472718 L416,307.031757230888 L424,312.5658083847837 L432,317.943343368327 L440.00000000000006,323.10159210455254 L448.00000000000006,327.98099143234515 L455.99999999999994,332.526038475645 L463.99999999999994,336.68608131084596 L472,340.416034797149 L480,343.6770106082858 L488,346.43685184925823 L496,348.6705641373638 L504,350.3606366492457 L512,351.4972483594726 L520,352.0783564940747 L528,352.1096660662387 L536,351.6044812219727 L544,350.5834409717032 L552,349.0741436903789 L560,347.1106665053078 L568,344.7329873303214 L576,341.98631882115984 L584,338.9203648963751 L592,335.58851166902775 L600,332.0469656481527 L608,328.3538528794776 L616,324.56829328950903 L624,320.7494648665469 L632,316.95567245071464 L640,313.2434358106062 L648,309.6666113582133 L656,306.2755613016526 L664,303.1163832656344 L672,300.23021243484726 L680,297.65260711090565 L688,295.4130272376969 L696,293.53441396399006 L704,292.0328766995612 L712,290.91749240735345 L720,290.1902200864158 L728,289.8459315668289 L736,289.8725578875034 L744,290.25134868987305 L752,290.95724026414416 L760,291.95932615829327 L768,293.22142263069617 L776,294.70271972087863 L784,296.35850735318627 L792,298.14096469667095 L800,300"/>
    <path d="M0,250 L8,251.78691546842597 L16,253.4435250892114 L24,254.92257455362707 L32,256.1800962087579 L40,257.17618391882644 L48,257.8757016327583 L56.00000000000001,258.24891417079334 L64,258.27202997968055 L72,257.92764700557336 L80,257.2050943740578 L88,256.100664223453 L96,254.61772978444145 L104,252.76674760861303 L112.00000000000001,250.5651436920329 L120,248.0370850883428 L128,245.21314042994982 L136,242.12983454671223 L144,238.82910406119683 L152,235.3576624213314 L160,231.76628428008456 L168,228.10902042474515 L176,224.44235557497012 L184,220.82432229132948 L192,217.3135849499659 L200,213.96850823286155 L208,210.84622484918748 L216,208.00171723702596 L224.00000000000003,205.48692779577925 L231.99999999999997,203.3499117708664 L240,201.63404626053952 L248,200.3773079500156 L256,199.61163111417954 L264,199.3623561835659 L272,199.64777775875248 L280,200.47879940785776 L288,201.85870091490514 L296,203.78302188961905 L304,206.2395638294035 L312,209.20851087045895 L320,212.66266760639712 L328,216.56781051857692 L336,220.88314778158482 L344,225.56188050785974 L352,230.55185690417886 L360,235.79630935464255 L368,241.2346631428812 L376,246.8034044009752 L384,252.43699394174715 L392,258.0688129093274 L400,263.6321256815852 L408,269.06104518505543 L416,274.29148574269277 L424,279.2620887677883 L432,283.91510704066206 L440.00000000000006,288.1972339516412 L448.00000000000006,292.06036495417374 L455.99999999999994,295.4622795321669 L463.99999999999994,298.3672332291004 L472,300.74645069357007 L480,302.5785122445255 L488,303.8496281251996 L496,304.5537963713735 L504,304.69284203953066 L512,304.2763373949932 L520,303.3214045201105 L528,301.8524036387308 L536,299.90051223663943 L544,297.50320176034023 L552,294.70362027171797 L560,291.5498908986679 L568,288.09433722873354 L576,284.39264792362275 L584,280.5029937694295 L592,276.4851111057808 L600,272.39936608555325 L608,268.30581449733114 L616,264.2632719310698 L624,260.3284088828053 L632,256.55488497971373 L640,252.9925358689928 L648,249.68662546305237 L656,246.67717518286017 L664,243.9983806076531 L672,241.67812454210417 L680,239.73759397355894 L688,238.1910067364422 L696,237.04545195456606 L704,236.30084652245284 L712,235.95000804251492 L720,235.97884278514957 L728,236.36664541274246 L736,237.0865054350635 L744,238.10581367060323 L752,239.38686040277173 L760,240.887515466605 L768,242.56197920364013 L776,244.36159210043192 L784,246.23568999749386 L792,248.13249103492586 L800,250"/>
  </g>
</svg>